REM DIRINDEX 1\4,1\2\5,1\2\6,1\2\7,1\3\8,1\3\9,1\3\10,1\3\11
REM DIRNAME cjc108,folder01,folder02,folder03,folder04,folder05,folder06,folder07,folder08,folder09,folder10
TITLE ""
FILE "t_k_442-451.mp3" MP3
  TRACK 01 AUDIO
    TITLE "5:cjc108_1329"
    INDEX 01 00:00:00
  TRACK 02 AUDIO
    TITLE "0:"
    INDEX 01 00:00:74
  TRACK 03 AUDIO
    TITLE "6:cjc108_1330"
    INDEX 01 00:01:13
  TRACK 04 AUDIO
    TITLE "0:"
    INDEX 01 00:03:35
  TRACK 05 AUDIO
    TITLE "7:cjc108_1331"
    INDEX 01 00:03:53
  TRACK 06 AUDIO
    TITLE "0:"
    INDEX 01 00:09:16
  TRACK 07 AUDIO
    TITLE "5:cjc108_1332"
    INDEX 01 00:10:12
  TRACK 08 AUDIO
    TITLE "0:"
    INDEX 01 00:11:15
  TRACK 09 AUDIO
    TITLE "6:cjc108_1333"
    INDEX 01 00:11:29
  TRACK 10 AUDIO
    TITLE "0:"
    INDEX 01 00:12:48
  TRACK 11 AUDIO
    TITLE "7:cjc108_1334"
    INDEX 01 00:12:63
  TRACK 12 AUDIO
    TITLE "0:"
    INDEX 01 00:19:05
  TRACK 13 AUDIO
    TITLE "5:cjc108_1335"
    INDEX 01 00:19:63
  TRACK 14 AUDIO
    TITLE "0:"
    INDEX 01 00:20:73
  TRACK 15 AUDIO
    TITLE "6:cjc108_1336"
    INDEX 01 00:21:15
  TRACK 16 AUDIO
    TITLE "0:"
    INDEX 01 00:22:23
  TRACK 17 AUDIO
    TITLE "7:cjc108_1337"
    INDEX 01 00:22:38
  TRACK 18 AUDIO
    TITLE "0:"
    INDEX 01 00:26:22
  TRACK 19 AUDIO
    TITLE "5:cjc108_1338"
    INDEX 01 00:27:10
  TRACK 20 AUDIO
    TITLE "0:"
    INDEX 01 00:28:15
  TRACK 21 AUDIO
    TITLE "6:cjc108_1339"
    INDEX 01 00:28:33
  TRACK 22 AUDIO
    TITLE "0:"
    INDEX 01 00:30:63
  TRACK 23 AUDIO
    TITLE "7:cjc108_1340"
    INDEX 01 00:31:04
  TRACK 24 AUDIO
    TITLE "0:"
    INDEX 01 00:37:57
  TRACK 25 AUDIO
    TITLE "5:cjc108_1341"
    INDEX 01 00:38:47
  TRACK 26 AUDIO
    TITLE "0:"
    INDEX 01 00:39:58
  TRACK 27 AUDIO
    TITLE "6:cjc108_1342"
    INDEX 01 00:40:03
  TRACK 28 AUDIO
    TITLE "0:"
    INDEX 01 00:42:27
  TRACK 29 AUDIO
    TITLE "7:cjc108_1343"
    INDEX 01 00:42:47
  TRACK 30 AUDIO
    TITLE "0:"
    INDEX 01 00:48:51
  TRACK 31 AUDIO
    TITLE "5:cjc108_1344"
    INDEX 01 00:49:43
  TRACK 32 AUDIO
    TITLE "0:"
    INDEX 01 00:50:60
  TRACK 33 AUDIO
    TITLE "6:cjc108_1345"
    INDEX 01 00:51:01
  TRACK 34 AUDIO
    TITLE "0:"
    INDEX 01 00:53:35
  TRACK 35 AUDIO
    TITLE "7:cjc108_1346"
    INDEX 01 00:53:51
  TRACK 36 AUDIO
    TITLE "0:"
    INDEX 01 00:58:34
  TRACK 37 AUDIO
    TITLE "5:cjc108_1347"
    INDEX 01 00:59:22
  TRACK 38 AUDIO
    TITLE "0:"
    INDEX 01 01:00:41
  TRACK 39 AUDIO
    TITLE "6:cjc108_1348"
    INDEX 01 01:00:59
  TRACK 40 AUDIO
    TITLE "0:"
    INDEX 01 01:02:16
  TRACK 41 AUDIO
    TITLE "7:cjc108_1349"
    INDEX 01 01:02:32
  TRACK 42 AUDIO
    TITLE "0:"
    INDEX 01 01:07:37
  TRACK 43 AUDIO
    TITLE "5:cjc108_1350"
    INDEX 01 01:08:19
  TRACK 44 AUDIO
    TITLE "0:"
    INDEX 01 01:09:20
  TRACK 45 AUDIO
    TITLE "6:cjc108_1351"
    INDEX 01 01:09:32
  TRACK 46 AUDIO
    TITLE "0:"
    INDEX 01 01:10:71
  TRACK 47 AUDIO
    TITLE "7:cjc108_1352"
    INDEX 01 01:11:11
  TRACK 48 AUDIO
    TITLE "0:"
    INDEX 01 01:16:46
  TRACK 49 AUDIO
    TITLE "5:cjc108_1353"
    INDEX 01 01:17:24
  TRACK 50 AUDIO
    TITLE "0:"
    INDEX 01 01:18:51
  TRACK 51 AUDIO
    TITLE "6:cjc108_1354"
    INDEX 01 01:18:64
  TRACK 52 AUDIO
    TITLE "0:"
    INDEX 01 01:21:59
  TRACK 53 AUDIO
    TITLE "7:cjc108_1355"
    INDEX 01 01:21:74
  TRACK 54 AUDIO
    TITLE "0:"
    INDEX 01 01:27:44
  TRACK 55 AUDIO
    TITLE "5:cjc108_1356"
    INDEX 01 01:28:37
  TRACK 56 AUDIO
    TITLE "0:"
    INDEX 01 01:29:48
  TRACK 57 AUDIO
    TITLE "6:cjc108_1357"
    INDEX 01 01:29:60
  TRACK 58 AUDIO
    TITLE "0:"
    INDEX 01 01:31:18
  TRACK 59 AUDIO
    TITLE "7:cjc108_1358"
    INDEX 01 01:31:32
  TRACK 60 AUDIO
    TITLE "0:"
    INDEX 01 01:36:25
